<?xml version="1.0" encoding="UTF-8" standalone="no"?>
<svg width="20px" height="20px" viewBox="0 0 20 20" version="1.1" xmlns="http://www.w3.org/2000/svg" xmlns:xlink="http://www.w3.org/1999/xlink">
    <!-- Generator: Sketch 3.8.1 (29687) - http://www.bohemiancoding.com/sketch -->
    <title>less 20 gray</title>
    <desc>Created with Sketch.</desc>
    <defs>
        <path d="M10.7588205,0 L1.24117951,0 C0.555819969,0 0,0.555819969 0,1.24117951 L0,10.7588205 C0,11.44418 0.555819969,12 1.24117951,12 L10.7588205,12 C11.44418,12 12,11.44418 12,10.7588205 L12,1.24117951 C12,0.555819969 11.44418,0 10.7588205,0 Z" id="path-1"></path>
        <mask id="mask-2" maskContentUnits="userSpaceOnUse" maskUnits="objectBoundingBox" x="0" y="0" width="12" height="12" fill="white">
            <use xlink:href="#path-1"></use>
        </mask>
    </defs>
    <g id="Symbols" stroke="none" stroke-width="1" fill="none" fill-rule="evenodd">
        <g id="less-20-gray">
            <g id="Group-2">
                <g id="settings">
                    <g>
                        <rect id="Rectangle-232" x="0" y="0" width="20" height="20"></rect>
                        <g transform="translate(4.000000, 4.000000)">
                            <g id="Rectangle-273">
                                <rect x="0" y="7.10542736e-16" width="12" height="12"></rect>
                            </g>
                            <path d="M2,6 L10,6" id="Stroke-3" stroke="#8A8F9B" stroke-linejoin="bevel"></path>
                        </g>
                        <g transform="translate(4.000000, 4.000000)">
                            <g id="Rectangle-273">
                                <rect x="0" y="-1.77635684e-15" width="12" height="12"></rect>
                            </g>
                            <use id="Stroke-1" stroke="#8A8F9B" mask="url(#mask-2)" stroke-width="2" stroke-linecap="round" stroke-linejoin="bevel" xlink:href="#path-1"></use>
                        </g>
                    </g>
                </g>
            </g>
        </g>
    </g>
</svg>