<?xml version="1.0" encoding="UTF-8" standalone="no"?>
<svg width="20px" height="20px" viewBox="0 0 20 20" version="1.1" xmlns="http://www.w3.org/2000/svg" xmlns:xlink="http://www.w3.org/1999/xlink">
    <!-- Generator: Sketch 3.8.1 (29687) - http://www.bohemiancoding.com/sketch -->
    <title>setting 20 gray</title>
    <desc>Created with Sketch.</desc>
    <defs>
        <path d="M8.1476,6.0736 C8.1476,7.2188 7.2192,8.1476 6.0736,8.1476 C4.9284,8.1476 4,7.2188 4,6.0736 C4,4.9284 4.9284,4 6.0736,4 C7.2192,4 8.1476,4.9284 8.1476,6.0736 L8.1476,6.0736 Z" id="path-1"></path>
        <mask id="mask-2" maskContentUnits="userSpaceOnUse" maskUnits="objectBoundingBox" x="0" y="0" width="4.1476" height="4.1476" fill="white">
            <use xlink:href="#path-1"></use>
        </mask>
    </defs>
    <g id="Symbols" stroke="none" stroke-width="1" fill="none" fill-rule="evenodd">
        <g id="setting-20-gray">
            <g id="Group-2">
                <g id="settings">
                    <g>
                        <rect id="Rectangle-232" x="0" y="0" width="20" height="20"></rect>
                        <g transform="translate(4.000000, 4.000000)">
                            <g>
                                <rect id="Rectangle-273" x="0" y="2.66453526e-16" width="12" height="12"></rect>
                                <use id="Stroke-1" stroke="#8A8F9B" mask="url(#mask-2)" stroke-width="2" stroke-linecap="round" stroke-linejoin="bevel" xlink:href="#path-1"></use>
                                <path d="M11.5424153,6.7728 C11.6136153,6.258 11.6164153,5.7604 11.5424153,5.2256 L10.0260153,5.0272 C9.92361533,4.6016 9.75601533,4.2028 9.53401533,3.84 L10.4668153,2.6264 C10.1544153,2.2132 9.78601533,1.8448 9.37281533,1.532 L8.15961533,2.4648 C7.79641533,2.242 7.39721533,2.074 6.97161533,1.9712 L6.77321533,0.4548 C6.24641533,0.3816 5.74921533,0.382 5.22641533,0.4544 L5.02801533,1.9704 C4.60161533,2.0724 4.20161533,2.2404 3.83801533,2.4632 L2.62481533,1.5304 C2.22841533,1.83 1.85041533,2.202 1.53121533,2.6236 L2.46361533,3.8368 C2.24041533,4.2008 2.07201533,4.6008 1.96921533,5.0276 L0.452815332,5.226 C0.384815332,5.718 0.380015332,6.2436 0.452815332,6.772 L1.96921533,6.9708 C2.07201533,7.3972 2.24041533,7.7976 2.46361533,8.1616 L1.53121533,9.3748 C1.83081533,9.7708 2.20241533,10.1488 2.62481533,10.4676 L3.83801533,9.5352 C4.20161533,9.7576 4.60161533,9.9256 5.02801533,10.028 L5.22641533,11.544 C5.74921533,11.616 6.24641533,11.6164 6.77321533,11.5436 L6.97161533,10.0268 C7.39721533,9.9244 7.79641533,9.7564 8.15961533,9.5336 L9.37281533,10.466 C9.78601533,10.1536 10.1544153,9.7852 10.4668153,9.372 L9.53401533,8.1584 C9.75601533,7.7956 9.92361533,7.3964 10.0260153,6.9712 L11.5424153,6.7728 Z" id="Stroke-3" stroke="#8A8F9B" stroke-linecap="round" stroke-linejoin="bevel"></path>
                            </g>
                        </g>
                    </g>
                </g>
            </g>
        </g>
    </g>
</svg>